<svg width="251" height="12" viewBox="0 0 251 12" fill="none" xmlns="http://www.w3.org/2000/svg">
<path d="M113.051 1.87064L114.285 1.33741C112.798 0.450851 111.719 0.754337 112.877 0C113.051 1.8685 117.672 0.201598 117.842 2.06793L118.655 1.67775C118.422 1.69292 118.385 1.58452 118.154 1.60403C119.736 0.713131 119.328 2.95664 121.366 2.69653C122.076 2.55563 122.571 2.28252 122.087 2.06142L123.669 2.52744C124.13 2.49276 124.018 2.16762 123.56 2.2023L125.972 2.35619L125.955 2.29983C126.298 2.59463 127.077 3.04985 127.459 3.24277C128.072 2.97616 127.15 3.04552 127.309 2.81142L128.643 3.26664C129.189 2.78326 128.083 2.31286 127.159 2.37789C128.408 0.515891 128.267 2.8461 130.96 1.77745L129.699 1.53253C130.514 0.479062 131.499 0.871391 132.926 0.218933C132.587 0.561419 130.068 1.86201 131.516 2.33889C131.924 2.20016 132.464 2.13726 133.244 2.52093C133.253 1.85547 134.017 2.02458 134.972 2.0701L134.909 1.19003C135.943 1.45231 135.858 1.90099 136.465 2.29983C137.617 2.2218 137.857 1.54118 138.13 0.968926C139.976 0.843204 136.853 2.05276 139.036 2.23485C140.57 1.9097 141.647 2.27818 143.48 2.81793C144.555 2.52313 143.294 2.27816 143.679 2.02888L144.629 2.7377C144.862 2.72252 144.786 2.5058 144.75 2.39742C145.552 2.67488 144.814 3.27747 146.072 3.52458C146.41 4.49568 148.666 2.13296 150.221 3.25579C150.606 3.01085 150.037 2.71387 150.156 2.37572C152.294 3.12355 151.989 2.92416 153.744 3.9191L155.243 3.35983C154.14 4.00796 155.543 4.80781 156.772 5.46677C156.38 5.78108 156.045 6.05638 155.821 6.18427L157.783 6.68284C158.022 6.54194 157.825 6.2363 157.505 5.86563C157.638 5.93933 157.765 6.01303 157.864 6.0824C158.567 5.76592 158.205 5.25217 157.704 4.75361C157.465 4.93136 157.228 5.11343 156.993 5.28684C156.511 4.74493 156.06 4.14886 156.162 3.63296C156.29 3.73701 156.535 3.82585 156.806 3.87788C156.68 3.73265 156.599 3.60043 156.658 3.51373C156.725 3.42269 156.93 3.61995 157.251 3.84755L157.7 2.87212L157.808 3.2623L160.381 2.68134C162.215 3.69579 163.807 5.16546 166.723 5.61632C166.003 4.88366 166.574 4.43716 166.539 3.58311C165.738 4.46967 164.281 3.16905 162.766 3.33163C163.555 3.24709 163.385 2.83742 163.184 2.69436L165.877 3.55056C165.82 2.85258 166.453 3.03686 167.159 2.76373C166.62 4.13151 169.166 3.71748 170.261 4.15968C170.332 3.69797 170.071 3.22328 168.732 3.30781C170.215 2.2977 170.632 4.96171 172.088 4.10766C171.76 4.09032 171.584 4.15749 171.456 3.92122C172.217 4.34608 174.087 4.05566 173.649 3.64381L173.323 3.62862C175.496 3.50506 179.932 3.74133 180.248 4.91835C180.271 4.76878 179.974 3.50291 179.843 3.2623L183.691 7.27243C183.356 6.26014 184.682 3.89089 182.885 3.29046C183.403 3.15823 184.045 2.99997 185.132 3.37931C184.778 3.5137 184.243 4.81214 184.725 4.91618C186.054 3.82803 185.646 4.33962 187.284 3.42487C186.754 3.62863 187.33 5.21965 188.165 5.18714C188.036 4.9487 188.246 3.63295 187.942 3.46171L190.011 5.0614C189.494 4.77093 189.928 3.74786 190.397 3.32083C190.179 3.61997 192.195 3.33814 192.748 3.50505L191.863 3.84104C194.212 3.6633 194.165 6.07369 196.494 6.04768C196.214 5.72254 195.814 4.06431 196.999 3.8974C197.535 4.70376 199.372 7.76661 201.426 8.42774L201.824 7.98554L203.4 8.54263C202.428 7.32225 199.686 4.74712 198.185 3.73483C199.067 3.39885 198.434 3.20591 199.751 3.27961C200.218 2.86559 199.038 2.61849 198.652 2.5838L201.718 2.3844C201.574 3.30564 204.053 3.36848 203.929 4.14232L200.612 3.09756C200.468 4.02314 202.513 5.75938 204.684 5.66618C205.238 5.31502 204.285 4.00797 204.333 3.70017C204.612 4.02748 206.387 4.36993 206.589 4.151L205.672 3.63079C206.882 3.31648 207.632 4.91404 209.092 4.07517C209.593 4.03181 210.598 2.92848 210.68 3.4769C209.852 4.50869 209.664 7.76882 210.201 8.57735C210.377 8.51015 212.841 7.64957 213.417 7.14235C214.251 6.34032 212.199 5.13296 212.907 4.44365C212.934 4.69727 213.387 5.02239 213.576 5.12644C214.104 4.92701 213.365 4.33743 214.507 4.48699C214.689 5.42992 216.834 4.47832 215.04 5.29552C216.156 5.59465 216.23 5.13731 217.544 5.21751C217.12 5.81145 218.703 7.31358 219.82 7.61488C219.756 7.37427 220.011 7.07299 220.134 6.93426C222.428 6.91259 223.663 6.54409 225.8 6.60695C225.999 6.38585 227.034 6.1474 226.599 5.72905C226.903 5.90679 227.184 6.23195 227.842 6.27963C229.126 5.51446 226.373 6.10191 227.357 5.16115C227.435 5.7074 229.054 5.97184 229.989 6.34467C229.691 7.17704 227.819 6.42919 226.881 6.05636C226.866 7.21821 228.488 8.4928 230.716 9.10841C232.488 9.45957 231.494 8.38658 231.8 8.56216C235.137 8.47762 234.618 10.6886 237.396 9.94943C238.504 9.24928 237.463 8.47978 237.713 7.95304C236.27 7.62356 235.486 8.34322 234.506 8.28036L235.718 7.97257C235.261 7.71029 234.298 7.487 233.769 7.68426C234.697 7.05564 239.404 7.74494 241.985 7.24205C242.439 7.50867 243.224 7.79699 242.848 8.07878L242.035 7.94219C241.28 8.50795 243.557 8.83096 242.523 9.06724C243.609 9.53111 244.826 10.2399 246.367 9.96678L246.666 9.13656C246.631 9.37934 245.656 9.59829 245.227 9.323C245.862 9.72185 247.598 8.27818 248.286 9.41186L247.201 9.9516C248.292 10.422 249.635 11.3714 251 11.1612C250.37 11.9697 250.687 11.0528 249.706 11.9892C250.561 10.81 246.221 11.896 247.585 10.6799C246.577 11.7703 245.859 11.0896 244.549 12C244.593 11.7225 245.017 11.4863 243.871 11.5752C243.82 11.4906 243.699 11.3844 243.624 11.3194C243.589 11.3281 243.576 11.3302 243.546 11.3367C243.569 11.3259 243.587 11.3194 243.609 11.3085C243.56 11.263 243.556 11.2565 243.634 11.2977C243.908 11.1871 244.13 11.0506 244.221 10.8989C243.663 10.2356 241.843 10.1814 241.233 9.82591C240.553 9.92995 241.513 10.1554 241.139 10.4371L240.226 9.90608C240.127 10.5195 238.412 10.8685 240.005 11.2869L238.567 11.263C237.716 11.5795 236.549 11.6771 235.833 11.3909C235.154 11.5015 234.128 10.6474 234.713 11.1503L232.462 10.6886L232.44 10.8425C230.214 10.8425 227.869 9.65682 225.312 10.6821C224.563 10.5 223.791 10.2811 222.536 10.4133L222.286 10.9379C221.325 10.7168 219.391 11.3844 218.984 10.8143C217.932 12.2233 214.311 10.9899 212.617 11.1958L212.558 10.4957C211.394 10.5 210.278 10.2702 208.835 9.94509L208.929 9.33168C207.687 8.78977 205.719 9.67634 203.749 9.55278C203.88 9.79339 204.381 9.74782 204.737 9.61343C202.369 10.9314 199.774 8.47546 197.629 9.43355C197.099 9.19511 196.711 9.26229 196.338 9.40969C196.387 9.41185 196.432 9.42273 196.469 9.4444C196.415 9.4444 196.334 9.44657 196.251 9.44657C196.015 9.54628 195.772 9.66549 195.508 9.7587C195.732 9.61347 195.947 9.49643 196.133 9.4444C195.722 9.42273 195.1 9.3295 194.491 9.15826L194.225 9.81723C194.176 9.80856 194.136 9.80203 194.084 9.79336C193.483 10.0231 193.605 9.46821 193.928 8.97616C193.622 8.85911 193.34 8.72256 193.123 8.55782C192.628 9.61346 191.524 8.159 190.853 9.284C190.444 8.71825 187.786 8.78973 187.469 7.61271C187.446 7.76444 187.267 7.83166 187.596 7.849C186.914 7.96605 186.234 8.0831 185.625 7.73845L185.33 8.57301L183.852 7.40896C182.946 7.90535 182.57 8.1958 183.462 8.86127C181.303 7.82297 181.707 8.45378 179.873 7.43066L179.959 7.97908C179.301 7.9444 178.253 7.19655 177.853 7.63875C176.375 8.6467 170.567 7.64523 166.784 8.53829C167.525 6.94508 165.024 9.22759 164.88 7.98554C164.658 8.36054 164.131 8.56646 164.741 8.90678C162.814 8.50794 161.841 9.4704 160.515 8.40393C160.292 8.78326 160.925 8.96532 160.728 9.18858C160.574 9.10405 160.117 8.85043 159.915 9.07369C159.717 9.29696 160.196 9.39667 160.501 9.56575C158.532 9.47688 158.337 8.30421 158.199 7.20305C157.198 7.71027 156.701 7.63221 155.983 6.90172C155.633 7.25721 155.053 7.62571 156.276 7.76877C155.586 7.81429 152.067 8.24134 152 7.35911C151.783 7.58021 151.037 7.41331 150.856 7.30926C149.31 7.34177 149.174 7.41765 147.656 7.3136L148.078 7.17701C147.482 6.10403 146.818 6.92561 145.594 6.78905L145.63 6.8996C142.821 7.6431 144.42 6.52242 141.65 7.37647L141.803 6.7175C141.549 5.29553 139.348 7.53469 137.744 6.97978L138.324 6.60912C137.448 6.1149 135.868 8.51877 134.987 8.69002C134.794 8.81357 135.289 8.89163 135.559 8.98484C133.25 9.8042 135.261 8.11779 133.543 7.90536C133.225 8.36923 133.949 9.09324 132.792 9.17128C132.216 9.54628 129.44 7.62792 127.861 8.52099C128.209 8.16333 128.555 7.80349 127.757 7.53253C126.534 7.40247 124.448 8.88514 123.344 7.75147C123.188 7.84684 123.129 7.94006 123.122 8.0311C122.187 7.7363 120.084 7.53902 119.519 6.92341C118.654 9.2016 113.705 5.80275 113.726 7.90536L110.849 7.7883L110.924 8.00289C109.085 8.14162 108.434 7.64524 107.789 7.14018C107.364 7.28541 107.675 7.48051 107.709 7.59106C105.023 8.02242 104.756 7.93573 102.503 6.89743L102.269 7.58021C101.657 7.18787 98.3856 8.66401 95.7493 7.87932C95.7761 7.95519 95.8298 8.08745 96.0394 8.18282C93.0729 7.38513 88.9448 10.112 87.8528 7.64091L85.8954 7.04698C88.4268 6.83022 85.5164 5.9718 86.556 5.54911C85.559 5.41255 83.9831 6.32298 85.2068 6.44004L85.3981 6.3143C85.8503 7.60621 82.2537 6.80203 82.3244 7.68426C77.3419 7.66475 72.4912 8.41692 67.8256 8.55348L68.3582 7.53687L66.7312 7.61922C66.3058 7.86199 66.162 8.41477 67.3223 8.35625C66.7141 8.935 65.3734 7.90753 65.3393 7.6886C63.0675 8.13079 66.2327 8.85045 65.5355 8.88297L64.5885 8.82227L64.8006 8.70087C64.0328 8.29985 63.9621 7.86632 62.5666 7.93785C61.6841 8.15245 62.1168 8.56432 61.7683 8.60984C61.7707 8.68137 61.6537 8.71604 61.2356 8.64667L59.1856 8.76157L60.0022 7.95521C59.0918 7.57588 58.0753 8.0246 59.0162 7.11202C57.6341 8.51232 51.3695 7.72979 50.5188 8.18716C49.2428 7.63442 47.9874 7.66906 46.431 7.77094C46.8161 7.5997 47.0428 6.70017 45.701 6.83673C46.2031 8.67055 43.2475 7.68642 42.1713 9.03469C43.1342 8.13512 38.3541 8.89378 39.8666 7.61488C38.7465 7.78829 39.8032 8.30853 38.9562 8.75723C36.2846 8.08959 33.084 9.35767 29.7872 9.19943C29.7336 8.95882 30.2833 8.57299 29.5739 8.23051L27.8445 9.48557C27.1924 9.3837 27.2339 8.10477 26.0516 8.97399C26.2174 8.7659 26.466 8.45377 26.0297 8.38657C19.5847 9.7175 12.829 7.77744 6.29504 10.2074C7.17866 9.71097 6.58634 9.68281 5.90747 9.68715C6.34745 9.55926 5.89163 9.08887 5.97451 8.75723L3.2383 9.75436C2.72885 8.85913 0.294947 9.78469 0 8.92197L0.870203 9.05205C-0.296179 8.06144 2.46317 6.71966 2.28035 5.40607C3.58689 6.53324 5.67711 3.57007 7.81852 5.17412C8.28532 4.89016 7.4151 4.76013 7.66252 4.44799C8.20731 4.9964 8.85695 5.09392 10.0611 4.80346L9.92338 4.66693C13.3092 4.70161 14.7559 4.09031 18.5561 3.61343L18.2806 4.27023C19.0972 4.16402 19.2678 3.95376 19.6481 3.78251C20.5951 4.74494 17.3531 3.89739 18.2172 4.96386C19.2898 3.60909 23.9809 4.79478 24.7 3.27093C25.9578 3.22974 24.338 4.03395 25.5946 3.99277L25.9249 3.5766L26.2466 4.09247C27.0705 3.98626 27.4825 3.46603 27.5105 3.1192C27.3106 3.16689 26.9414 3.039 26.7268 3.01299C27.7921 2.50576 29.7433 3.09973 30.109 2.93499L28.9036 3.21674C32.3381 3.50937 36.5235 2.85911 39.8447 3.63296L39.596 3.94509C42.1311 4.46315 41.6204 3.56574 44.4029 3.77383L44.3018 3.70234C44.86 3.9993 45.6034 4.13799 46.364 4.08813C45.6595 3.74348 47.6803 3.35984 46.7576 2.98267C49.5072 3.53758 48.119 3.43352 49.9387 4.54119L50.3531 4.02314C50.9734 4.47184 51.027 4.7146 52.4152 4.81865C51.2745 4.40246 53.2976 4.02313 52.0191 3.46822C54.926 2.28902 56.3507 4.52168 57.678 2.86778C59.0235 4.26157 55.1612 3.68929 55.912 3.97975C55.2867 4.45013 57.0223 5.01806 57.9352 4.86416C58.8651 4.81864 59.5086 3.03468 61.8499 3.02601C61.6171 3.03468 61.6013 2.93066 61.3685 2.93933C62.2436 2.56433 63.087 3.401 64.1595 2.80057C64.7653 3.64595 65.5538 2.73119 65.733 3.81718L63.5855 3.59824C64.8043 3.86486 65.9523 5.12427 67.9548 4.47615C67.7976 4.25938 67.1992 3.97759 66.7885 3.82369C67.3735 3.49204 67.9183 4.02096 68.5252 3.68281C68.3473 2.59466 65.9146 3.48341 64.6068 2.67054C65.2345 2.20016 67.0773 3.42268 66.4167 2.25432C67.3649 3.74349 68.7227 2.03109 70.3132 3.15392L70.2072 2.50146C70.457 2.60117 70.9799 2.90247 71.4406 2.8808L70.6021 2.04624C71.8879 2.75072 73.0737 1.37642 74.3072 1.76009C71.7294 1.76443 73.7307 2.55131 72.6423 3.0412C75.8246 3.88224 74.4644 1.31573 78.0257 1.59535C77.543 1.50865 76.217 2.00503 76.9727 2.29983C77.6503 2.15894 78.5437 1.901 78.9581 1.55418C81.3176 1.66906 78.5985 2.2283 79.604 2.62064C80.4035 1.81861 80.7631 2.93496 81.7978 3.1799L81.8039 2.51659C84.4902 2.06573 82.5206 3.89307 84.9387 3.3555L83.9124 2.4451L85.1751 2.67054L84.9131 1.91833C86.2866 2.46674 86.7132 2.31718 88.0576 2.09392C87.7468 2.56429 88.2355 3.29697 89.4263 3.30564C90.2367 2.90463 88.9704 2.67919 90.6572 2.7594C90.2745 2.34538 89.8565 1.82949 89.124 2.44727C89.0484 2.2305 88.7474 2.03539 88.6694 1.82079C89.5433 1.35909 90.8668 1.69728 91.4775 1.69728C91.2422 1.72545 90.9619 1.7623 90.8169 1.85985L93.2654 2.7659C93.6506 2.51446 93.3434 2.31504 93.0412 2.11995C93.536 2.19149 93.8797 2.49495 94.6086 2.54914C94.4184 2.0094 94.4635 1.45232 93.4312 1.20088L95.7627 1.79264C95.9187 1.55853 96.9584 1.14231 96.6549 0.94506C97.9468 0.622082 99.8262 1.97904 101.539 1.55635C101.628 1.66039 101.807 1.76011 102.17 1.83598C103.78 1.70809 105.206 1.04045 107.115 1.77311L108.196 0.802014C109.691 1.01444 106.732 2.02674 109.221 2.38006C110.982 2.68353 109.878 1.55201 110.495 1.28322C111.372 1.77094 112.895 2.76805 114.514 1.9812C113.971 1.80345 113.552 1.94651 113.051 1.87064ZM131.482 2.35402C131.125 2.21096 130.413 1.77529 130.152 2.16547C130.558 2.92847 130.872 2.56645 131.482 2.35402ZM159.492 4.22906C159.228 4.00579 158.817 4.1098 158.352 4.35475C158.688 4.41327 159.068 4.3938 159.492 4.22906ZM237.463 10.8403C237.448 10.8295 237.437 10.8208 237.425 10.8078C236.627 11.0376 236.91 10.9466 237.463 10.8403ZM239.12 10.6106C239.286 10.7081 239.273 10.8013 239.201 10.8902C239.088 10.719 238.717 10.6929 238.293 10.7255C238.414 10.5585 238.628 10.4458 239.12 10.6106ZM61.5842 8.37138L61.9048 8.19367C61.1784 8.01159 61.3819 8.18063 61.5842 8.37138Z" fill="#E8973E"/>
</svg>
