<svg width="331" height="17" viewBox="0 0 331 17" fill="none" xmlns="http://www.w3.org/2000/svg">
<path d="M148.634 2.61575L150.256 1.87012C148.301 0.630432 146.883 1.0548 148.405 0C148.634 2.61275 154.709 0.281898 154.933 2.89162L156.002 2.34602C155.696 2.36724 155.646 2.21566 155.343 2.24294C157.423 0.997181 156.886 4.13431 159.566 3.77059C160.5 3.57357 161.15 3.19168 160.514 2.88252L162.594 3.53416C163.2 3.48566 163.053 3.03101 162.45 3.0795L165.621 3.2947L165.599 3.21589C166.051 3.62811 167.075 4.26465 167.576 4.53442C168.382 4.1616 167.171 4.2586 167.379 3.93124L169.134 4.56779C169.852 3.89187 168.397 3.23411 167.182 3.32504C168.824 0.721376 168.639 3.97973 172.18 2.48543L170.521 2.14296C171.593 0.66988 172.888 1.21848 174.764 0.306137C174.319 0.785041 171.007 2.60367 172.91 3.2705C173.447 3.07651 174.157 2.98856 175.183 3.52506C175.194 2.59453 176.199 2.831 177.455 2.89465L177.372 1.66403C178.73 2.03079 178.62 2.65818 179.418 3.21589C180.932 3.10677 181.248 2.15506 181.607 1.35486C184.033 1.17906 179.927 2.87041 182.797 3.12502C184.815 2.67036 186.23 3.18562 188.64 3.94035C190.053 3.52812 188.396 3.18558 188.902 2.83701L190.151 3.82816C190.457 3.80694 190.357 3.50389 190.309 3.35234C191.364 3.74031 190.394 4.58293 192.048 4.92847C192.492 6.28637 195.458 2.98254 197.503 4.55262C198.009 4.21011 197.261 3.79484 197.418 3.322C200.228 4.36771 199.828 4.08889 202.135 5.48013L204.106 4.6981C202.656 5.60438 204.5 6.72283 206.116 7.64426C205.601 8.08376 205.16 8.46872 204.866 8.64755L207.445 9.34471C207.76 9.14769 207.5 8.72031 207.08 8.202C207.255 8.30505 207.421 8.40811 207.551 8.5051C208.476 8.06257 208 7.34418 207.341 6.64704C207.027 6.89558 206.715 7.15018 206.407 7.39266C205.773 6.6349 205.18 5.8014 205.314 5.08002C205.483 5.22551 205.805 5.34974 206.16 5.42249C205.995 5.21941 205.888 5.03454 205.966 4.9133C206.055 4.78599 206.324 5.06183 206.745 5.38009L207.337 4.01612L207.478 4.56172L210.86 3.74935C213.272 5.16788 215.365 7.22293 219.199 7.85339C218.252 6.8289 219.004 6.20454 218.957 5.01031C217.904 6.25 215.988 4.43133 213.996 4.65866C215.034 4.54045 214.81 3.9676 214.546 3.76756L218.087 4.9648C218.012 3.98881 218.843 4.24648 219.773 3.86457C219.063 5.77715 222.41 5.19821 223.851 5.81654C223.944 5.17093 223.601 4.50715 221.84 4.62536C223.79 3.2129 224.338 6.93802 226.253 5.7438C225.822 5.71955 225.59 5.81348 225.421 5.4831C226.423 6.07718 228.881 5.67108 228.306 5.09519L227.876 5.07395C230.733 4.90118 236.566 5.23155 236.981 6.8774C237.011 6.66826 236.62 4.89817 236.449 4.56172L241.508 10.1691C241.067 8.75364 242.811 5.44069 240.449 4.60109C241.13 4.4162 241.972 4.19491 243.402 4.72534C242.937 4.91326 242.234 6.72888 242.867 6.87437C244.615 5.35279 244.078 6.06815 246.232 4.78905C245.535 5.07397 246.293 7.29871 247.39 7.25325C247.22 6.91983 247.496 5.08001 247.097 4.84055L249.816 7.07742C249.137 6.67126 249.707 5.24068 250.324 4.64357C250.037 5.06185 252.688 4.66777 253.415 4.90116L252.252 5.37099C255.34 5.12244 255.279 8.49293 258.341 8.45656C257.972 8.0019 257.447 5.68318 259.004 5.44979C259.709 6.57734 262.124 10.8602 264.824 11.7846L265.348 11.1663L267.42 11.9453C266.142 10.2388 262.538 6.63796 260.564 5.22247C261.724 4.75266 260.89 4.48287 262.623 4.58592C263.236 4.00699 261.685 3.66147 261.177 3.61297L265.209 3.33414C265.02 4.62233 268.279 4.71019 268.116 5.79227L263.754 4.33136C263.565 5.62561 266.254 8.05343 269.108 7.92309C269.837 7.43207 268.584 5.6044 268.646 5.174C269.013 5.63168 271.348 6.11054 271.612 5.8044L270.407 5.07698C271.998 4.63748 272.984 6.87137 274.903 5.69836C275.562 5.63774 276.884 4.09494 276.991 4.86179C275.903 6.30457 275.655 10.8633 276.362 11.9938C276.592 11.8999 279.832 10.6965 280.59 9.98725C281.686 8.86576 278.988 7.17749 279.919 6.21362C279.954 6.56825 280.55 7.02288 280.799 7.16837C281.493 6.88951 280.521 6.06509 282.023 6.27423C282.262 7.59273 285.082 6.2621 282.723 7.4048C284.191 7.82308 284.289 7.18357 286.016 7.29572C285.459 8.12623 287.54 10.2267 289.008 10.648C288.924 10.3115 289.259 9.89026 289.421 9.69628C292.437 9.66597 294.06 9.15069 296.871 9.23859C297.132 8.92942 298.492 8.59599 297.92 8.01101C298.321 8.25955 298.69 8.71422 299.555 8.7809C301.244 7.71095 297.624 8.53238 298.917 7.21691C299.02 7.98073 301.149 8.35051 302.378 8.87185C301.986 10.0358 299.524 8.99003 298.292 8.46869C298.271 10.0933 300.404 11.8756 303.333 12.7364C305.663 13.2274 304.357 11.7271 304.759 11.9726C309.147 11.8544 308.464 14.946 312.116 13.9124C313.573 12.9334 312.204 11.8574 312.533 11.1209C310.635 10.6601 309.605 11.6664 308.317 11.5785L309.91 11.1482C309.309 10.7814 308.043 10.4692 307.347 10.745C308.568 9.866 314.757 10.8299 318.149 10.1267C318.747 10.4995 319.779 10.9026 319.284 11.2967L318.215 11.1057C317.223 11.8968 320.216 12.3485 318.857 12.6788C320.285 13.3275 321.884 14.3186 323.911 13.9367L324.304 12.7758C324.258 13.1153 322.976 13.4214 322.412 13.0365C323.246 13.5942 325.53 11.5755 326.434 13.1607L325.007 13.9155C326.442 14.5732 328.207 15.9008 330.002 15.6068C329.174 16.7374 329.59 15.4553 328.3 16.7647C329.425 15.1158 323.719 16.6343 325.512 14.9339C324.187 16.4585 323.243 15.5067 321.521 16.7798C321.578 16.3918 322.136 16.0614 320.63 16.1857C320.562 16.0675 320.404 15.919 320.304 15.8281C320.258 15.8402 320.242 15.8432 320.202 15.8523C320.232 15.8372 320.256 15.828 320.285 15.8129C320.221 15.7492 320.215 15.7401 320.317 15.7977C320.678 15.6431 320.969 15.4522 321.09 15.2401C320.356 14.3126 317.963 14.2368 317.16 13.7397C316.266 13.8852 317.529 14.2004 317.037 14.5944L315.837 13.8518C315.707 14.7096 313.452 15.1976 315.547 15.7826L313.656 15.7492C312.537 16.1918 311.002 16.3282 310.062 15.9281C309.169 16.0827 307.82 14.8884 308.589 15.5916L305.63 14.9461L305.601 15.1612C302.673 15.1612 299.59 13.5033 296.228 14.937C295.244 14.6823 294.228 14.3762 292.58 14.5611L292.251 15.2946C290.987 14.9854 288.444 15.919 287.909 15.1218C286.526 17.092 281.765 15.3673 279.538 15.6553L279.461 14.6762C277.93 14.6823 276.463 14.361 274.565 13.9064L274.689 13.0486C273.056 12.2909 270.47 13.5306 267.878 13.3578C268.052 13.6942 268.71 13.6305 269.178 13.4426C266.065 15.2855 262.653 11.8514 259.833 13.1911C259.136 12.8577 258.626 12.9516 258.136 13.1577C258.2 13.1607 258.259 13.1759 258.307 13.2062C258.237 13.2062 258.129 13.2093 258.021 13.2093C257.711 13.3487 257.391 13.5154 257.045 13.6457C257.338 13.4426 257.622 13.279 257.865 13.2062C257.325 13.1759 256.508 13.0456 255.707 12.8061L255.357 13.7276C255.293 13.7154 255.24 13.7063 255.171 13.6942C254.381 14.0155 254.542 13.2395 254.966 12.5515C254.564 12.3878 254.194 12.1969 253.909 11.9665C253.258 13.4426 251.806 11.4088 250.924 12.9819C250.387 12.1908 246.892 12.2908 246.475 10.645C246.445 10.8571 246.209 10.9511 246.642 10.9754C245.745 11.139 244.85 11.3027 244.051 10.8208L243.663 11.9878L241.719 10.3601C240.529 11.0542 240.034 11.4603 241.207 12.3908C238.369 10.939 238.899 11.821 236.487 10.3904L236.601 11.1573C235.736 11.1088 234.358 10.063 233.832 10.6814C231.889 12.0908 224.253 10.6904 219.279 11.9392C220.253 9.7114 216.965 12.9031 216.776 11.1663C216.485 11.6907 215.791 11.9786 216.594 12.4545C214.06 11.8968 212.78 13.2426 211.036 11.7513C210.743 12.2818 211.576 12.5363 211.317 12.8485C211.115 12.7303 210.514 12.3757 210.248 12.6879C209.988 13.0001 210.618 13.1395 211.019 13.3759C208.429 13.2517 208.173 11.6119 207.992 10.0721C206.676 10.7814 206.023 10.6722 205.079 9.65077C204.619 10.1479 203.856 10.6631 205.463 10.8632C204.556 10.9268 199.93 11.524 199.842 10.2903C199.557 10.5995 198.576 10.3661 198.337 10.2206C196.306 10.2661 196.126 10.3722 194.131 10.2267L194.686 10.0357C193.902 8.53535 193.029 9.68418 191.42 9.49322L191.466 9.64781C187.774 10.6875 189.877 9.12039 186.234 10.3146L186.435 9.39318C186.101 7.40482 183.208 10.5359 181.099 9.75992L181.862 9.24162C180.709 8.55055 178.633 11.9119 177.474 12.1514C177.221 12.3241 177.872 12.4333 178.226 12.5636C175.191 13.7094 177.835 11.3512 175.575 11.0542C175.157 11.7028 176.109 12.7152 174.588 12.8243C173.83 13.3487 170.182 10.6662 168.105 11.915C168.563 11.4149 169.018 10.9117 167.969 10.5328C166.36 10.351 163.618 12.4242 162.166 10.839C161.961 10.9724 161.884 11.1027 161.875 11.23C160.646 10.8178 157.88 10.5419 157.138 9.68111C156 12.8667 149.493 8.11407 149.522 11.0542L145.739 10.8905L145.838 11.1906C143.42 11.3845 142.564 10.6904 141.715 9.98421C141.157 10.1873 141.566 10.4601 141.611 10.6147C138.079 11.2179 137.728 11.0966 134.765 9.64477L134.458 10.5995C133.653 10.0509 129.352 12.115 125.886 11.0178C125.922 11.1239 125.992 11.3088 126.268 11.4422C122.368 10.3267 116.94 14.1398 115.504 10.6844L112.931 9.8539C116.259 9.5508 112.433 8.35046 113.799 7.75941C112.489 7.56845 110.417 8.84152 112.026 9.00519L112.277 8.82937C112.872 10.6359 108.143 9.51137 108.236 10.745C101.685 10.7177 95.3077 11.7695 89.1737 11.9605L89.874 10.5389L87.7348 10.6541C87.1755 10.9935 86.9864 11.7665 88.5119 11.6847C87.7123 12.4939 85.9497 11.0572 85.9048 10.7511C82.9179 11.3694 87.0794 12.3757 86.1628 12.4212L84.9177 12.3363L85.1966 12.1665C84.187 11.6058 84.0941 10.9996 82.2593 11.0996C81.0992 11.3997 81.6681 11.9756 81.2098 12.0393C81.213 12.1393 81.0592 12.1878 80.5095 12.0908L77.8143 12.2514L78.8879 11.1239C77.6909 10.5935 76.3545 11.2209 77.5916 9.94484C75.7744 11.9029 67.5381 10.8087 66.4196 11.4482C64.7419 10.6753 63.0914 10.7238 61.0451 10.8662C61.5515 10.6268 61.8495 9.36894 60.0853 9.5599C60.7455 12.1242 56.8597 10.748 55.4448 12.6333C56.7106 11.3755 50.426 12.4363 52.4146 10.648C50.942 10.8905 52.3313 11.6179 51.2176 12.2454C47.7051 11.3118 43.4972 13.085 39.1627 12.8637C39.0922 12.5273 39.8149 11.9877 38.8823 11.5088L36.6085 13.2638C35.7512 13.1214 35.8057 11.333 34.2514 12.5485C34.4693 12.2575 34.7962 11.821 34.2225 11.7271C25.749 13.5881 16.8669 10.8753 8.2764 14.2731C9.43814 13.579 8.65938 13.5396 7.76684 13.5457C8.34531 13.3668 7.74602 12.7091 7.85498 12.2454L4.25756 13.6397C3.58775 12.3878 0.387782 13.6821 0 12.4757L1.1441 12.6576C-0.389401 11.2724 3.23845 9.39619 2.99809 7.55938C4.71587 9.13552 7.46398 4.99208 10.2794 7.23504C10.8931 6.83798 9.749 6.65616 10.0743 6.21969C10.7906 6.98654 11.6447 7.12291 13.2278 6.71675L13.0468 6.52583C17.4982 6.57432 19.4003 5.71954 24.3966 5.05271L24.0344 5.97112C25.1081 5.8226 25.3324 5.52859 25.8323 5.28914C27.0774 6.63492 22.815 5.44977 23.9511 6.94104C25.3612 5.04664 31.5289 6.7046 32.4743 4.57378C34.128 4.5162 31.9984 5.64073 33.6505 5.58314L34.0847 5.00121L34.5077 5.72256C35.591 5.57404 36.1326 4.84659 36.1694 4.36163C35.9066 4.42831 35.4211 4.24948 35.1391 4.21311C36.5396 3.50385 39.105 4.33439 39.5858 4.10403L38.001 4.49801C42.5165 4.9072 48.0192 3.99794 52.3857 5.08002L52.0589 5.51647C55.3918 6.24089 54.7204 4.98603 58.3787 5.27701L58.2457 5.17703C58.9796 5.59228 59.9571 5.7862 60.957 5.71649C60.0308 5.23456 62.6876 4.69811 61.4746 4.17071C65.0896 4.94665 63.2645 4.80114 65.6569 6.35L66.2017 5.62562C67.0173 6.25304 67.0878 6.5925 68.9129 6.73799C67.4131 6.15603 70.0731 5.6256 68.3921 4.84966C72.2139 3.20077 74.0871 6.32273 75.8321 4.01005C77.6012 5.95901 72.5232 5.15878 73.5102 5.56494C72.6882 6.22267 74.97 7.01683 76.1702 6.80163C77.3928 6.73797 78.2389 4.24344 81.3171 4.23131C81.0111 4.24344 80.9903 4.09798 80.6842 4.1101C81.8347 3.58573 82.9436 4.75567 84.3537 3.91607C85.1501 5.09818 86.1868 3.81906 86.4224 5.33761L83.599 5.03147C85.2014 5.40429 86.7108 7.16534 89.3436 6.25906C89.1368 5.95595 88.3501 5.56192 87.8101 5.34671C88.5792 4.88297 89.2955 5.62257 90.0935 5.14973C89.8596 3.62815 86.6611 4.87089 84.9418 3.73426C85.767 3.07652 88.1898 4.78597 87.3213 3.15225C88.568 5.23457 90.3531 2.84009 92.4442 4.41017L92.3048 3.49783C92.6333 3.63725 93.3207 4.05857 93.9264 4.02826L92.824 2.86128C94.5145 3.84637 96.0737 1.92467 97.6953 2.46116C94.3062 2.46722 96.9374 3.56754 95.5064 4.25255C99.6903 5.42859 97.902 1.8398 102.584 2.2308C101.95 2.10956 100.206 2.80367 101.2 3.21589C102.091 3.01887 103.265 2.65819 103.81 2.17323C106.912 2.33387 103.337 3.11586 104.659 3.66447C105.711 2.54299 106.183 4.104 107.544 4.4465L107.552 3.51899C111.083 2.88853 108.494 5.44373 111.673 4.69204L110.324 3.41902L111.984 3.73426L111.639 2.68242C113.445 3.44927 114.006 3.24015 115.774 2.92795C115.365 3.58569 116.008 4.6102 117.573 4.62233C118.639 4.06159 116.974 3.74635 119.192 3.8585C118.688 3.27957 118.139 2.55821 117.176 3.42205C117.076 3.11895 116.681 2.84611 116.578 2.54604C117.727 1.90043 119.467 2.37332 120.27 2.37332C119.961 2.41273 119.592 2.46426 119.401 2.60065L122.621 3.8676C123.127 3.516 122.723 3.23715 122.326 2.96436C122.976 3.06439 123.428 3.48872 124.387 3.5645C124.137 2.80977 124.196 2.0308 122.839 1.6792L125.904 2.50667C126.109 2.17932 127.476 1.59731 127.077 1.32149C128.776 0.869865 131.246 2.76731 133.498 2.17626C133.615 2.32175 133.85 2.46119 134.328 2.56728C136.445 2.38845 138.319 1.45488 140.829 2.47937L142.25 1.12147C144.216 1.41851 140.326 2.83401 143.598 3.32807C145.913 3.75242 144.461 2.1702 145.274 1.79435C146.426 2.47633 148.429 3.8706 150.557 2.77033C149.844 2.52179 149.293 2.72183 148.634 2.61575ZM172.866 3.29166C172.396 3.09161 171.46 2.48241 171.117 3.028C171.651 4.09492 172.064 3.5887 172.866 3.29166ZM209.692 5.91355C209.344 5.60136 208.804 5.7468 208.194 6.0893C208.634 6.17114 209.134 6.14391 209.692 5.91355ZM312.204 15.1582C312.185 15.1431 312.171 15.1309 312.155 15.1127C311.105 15.434 311.477 15.3067 312.204 15.1582ZM314.383 14.8369C314.601 14.9733 314.584 15.1036 314.489 15.2279C314.34 14.9885 313.853 14.9521 313.295 14.9976C313.454 14.7642 313.736 14.6065 314.383 14.8369ZM80.9678 11.7058L81.3892 11.4573C80.4342 11.2027 80.7018 11.4391 80.9678 11.7058Z" fill="#F9D448"/>
</svg>
